<svg xmlns="http://www.w3.org/2000/svg" xmlns:xlink="http://www.w3.org/1999/xlink" viewBox="0 0 91 35"><defs><style>.cls-1{fill:none;}.cls-2{clip-path:url(#clip-path);}.cls-3{fill:#239dad;}</style><clipPath id="clip-path"><rect class="cls-1" width="91" height="35"/></clipPath></defs><g id="圖層_2" data-name="圖層 2"><g id="圖層_1-2" data-name="圖層 1"><g class="cls-2"><g id="typst-logo"><path id="t" class="cls-3" d="M7.89,18.15a3.72,3.72,0,0,0,.49,2.28,2.2,2.2,0,0,0,1.77.58,6.91,6.91,0,0,0,3.41-1.34l.89,1.47C11.85,23.32,9.7,24.41,8,24.41A6.13,6.13,0,0,1,4,23.2c-1-.84-1.46-2.3-1.46-4.38V7.11H.35L0,5.45l2.57-.8V2.46L7.89,0V4.92l5.23-.41-.49,2.91L7.89,7.24Z"/><path id="y" class="cls-3" d="M17.58,34.6h-.75a15.88,15.88,0,0,1-1.64-5.23l1-.63a4.41,4.41,0,0,0,2.26.81,3.49,3.49,0,0,0,3.19-1.93l1.51-3.53L16.39,8.14a4.33,4.33,0,0,0-.93-1.52A3.24,3.24,0,0,0,14,6.17l-.31-1.66q3.54.36,5.1.36c1,0,2.88-.12,5.53-.36L24.1,6.08a3.12,3.12,0,0,1-.49.13L23,6.39l-.53.14c-.42.17-.62.4-.62.67a4.17,4.17,0,0,0,.17.94l3.9,10.05L29.73,8a2.69,2.69,0,0,0,.13-.76c0-.54-.78-.9-2.35-1.08l-.09-1.56a26,26,0,0,0,3.63.31c1,0,2.59-.1,4.84-.31l-.32,1.65a2.59,2.59,0,0,0-1.5.41A3.34,3.34,0,0,0,33.23,8L23.92,29.9Q21.92,34.6,17.58,34.6Z"/><path id="p" class="cls-3" d="M49.18,22.13A3.43,3.43,0,0,0,52.1,20.2a10.75,10.75,0,0,0,1.24-5.72q0-7-4-7a5.55,5.55,0,0,0-3.59,1.83V19.62a4.52,4.52,0,0,0,1.46,1.79A3.34,3.34,0,0,0,49.18,22.13ZM49.27,35c-2.75-.27-4.61-.4-5.59-.4s-2.92.13-5.85.4l-.44-1.61a8,8,0,0,0,2.3-.8,1.51,1.51,0,0,0,.71-1.39V8.9c0-1-.38-1.52-1.15-1.52l-2,.26L37,6a22.87,22.87,0,0,1,7.22-2l.93,1a6.74,6.74,0,0,0,.45,2.24l1.95-1.48a6.29,6.29,0,0,1,3.68-1.56q4,0,5.93,2.46c1.27,1.63,1.91,4,1.91,7.06a10.75,10.75,0,0,1-2.88,7.64,9.67,9.67,0,0,1-7.4,3.09,5.8,5.8,0,0,1-3.06-1v7.87a1.55,1.55,0,0,0,.71,1.34,11.28,11.28,0,0,0,2.66.72l.49.09Z"/><path id="s" class="cls-3" d="M67.33,22.26a2.49,2.49,0,0,0,1.78-.67,2.2,2.2,0,0,0,.71-1.65,3.25,3.25,0,0,0-.27-1.52,2.73,2.73,0,0,0-.89-1,14.39,14.39,0,0,0-2.52-1.52c-1.07-.53-1.91-1-2.53-1.38a6.89,6.89,0,0,1-1.77-1.88A5.67,5.67,0,0,1,61,9.57a4.63,4.63,0,0,1,2-3.94,8.07,8.07,0,0,1,4.92-1.47,25,25,0,0,1,6.64,1,20.23,20.23,0,0,1-.75,4.91L72,10.5q-1.06-4.29-4-4.29c-1.33,0-2,.79-2,2.37a2.09,2.09,0,0,0,.75,1.61A11.88,11.88,0,0,0,69,11.62c1,.48,1.73.85,2.17,1.12A14.54,14.54,0,0,1,73,14a5.41,5.41,0,0,1,2,4.51,5,5,0,0,1-2.22,4.43,10.15,10.15,0,0,1-5.85,1.52,15.38,15.38,0,0,1-6.29-1.21,26.13,26.13,0,0,1-.09-2.64,26.66,26.66,0,0,1,.09-2.68l2.17-.49a6.88,6.88,0,0,0,1.55,3.53A3.84,3.84,0,0,0,67.33,22.26Z"/><path id="t-2" data-name="t" class="cls-3" d="M84.44,18.15a3.72,3.72,0,0,0,.49,2.28A2.2,2.2,0,0,0,86.7,21a6.84,6.84,0,0,0,3.41-1.34L91,21.14q-3.9,3.27-6.43,3.27a6.08,6.08,0,0,1-4-1.21q-1.47-1.26-1.47-4.38V7.11H76.91l-.36-1.66,2.57-.8V2.46L84.44,0V4.92l5.23-.41-.49,2.91-4.74-.18Z"/></g></g></g></g></svg>